<svg width="300" height="300" viewBox="0 0 300 300" fill="none" xmlns="http://www.w3.org/2000/svg">
<mask id="path-1-inside-1_5_67" fill="white">
<path fill-rule="evenodd" clip-rule="evenodd" d="M141.851 300C213.952 267.031 261.077 212.474 261.077 150.75C261.077 88.0805 212.497 32.799 138.52 0L199.028 0H201.452V0.0812203C241.175 2.71011 300 68.8249 300 150C300 231.175 241.175 297.29 201.452 299.919V300H199.028H141.851Z"/>
</mask>
<path fill-rule="evenodd" clip-rule="evenodd" d="M141.851 300C213.952 267.031 261.077 212.474 261.077 150.75C261.077 88.0805 212.497 32.799 138.52 0L199.028 0H201.452V0.0812203C241.175 2.71011 300 68.8249 300 150C300 231.175 241.175 297.29 201.452 299.919V300H199.028H141.851Z" fill="#C2DFE3"/>
<path fill-rule="evenodd" clip-rule="evenodd" d="M141.851 300C213.952 267.031 261.077 212.474 261.077 150.75C261.077 88.0805 212.497 32.799 138.52 0L199.028 0H201.452V0.0812203C241.175 2.71011 300 68.8249 300 150C300 231.175 241.175 297.29 201.452 299.919V300H199.028H141.851Z" fill="url(#paint0_linear_5_67)" fill-opacity="0.2"/>
<path d="M141.851 300L141.435 299.091L141.851 301V300ZM138.52 0V-1L138.114 0.914178L138.52 0ZM199.028 0V1V0ZM201.452 0H202.452V-1H201.452V0ZM201.452 0.0812203H200.452V1.01723L201.386 1.07904L201.452 0.0812203ZM201.452 299.919L201.386 298.921L200.452 298.983V299.919H201.452ZM201.452 300V301H202.452V300H201.452ZM260.077 150.75C260.077 211.919 213.358 266.203 141.435 299.091L142.267 300.909C214.546 267.859 262.077 213.029 262.077 150.75H260.077ZM138.114 0.914178C211.914 33.6344 260.077 88.6442 260.077 150.75H262.077C262.077 87.5168 213.08 31.9635 138.925 -0.914178L138.114 0.914178ZM138.52 1L199.028 1V-1L138.52 -1V1ZM199.028 1H201.452V-1H199.028V1ZM200.452 0V0.0812203H202.452V0H200.452ZM201.386 1.07904C211.071 1.72004 222.021 6.24438 233.031 14.0168C244.031 21.7816 255.033 32.7478 264.814 46.1746C284.378 73.0307 299 109.651 299 150H301C301 109.174 286.21 72.1492 266.43 44.997C256.54 31.4196 245.387 20.2907 234.185 12.3829C222.993 4.48269 211.694 -0.243155 201.518 -0.916597L201.386 1.07904ZM299 150C299 190.349 284.378 226.969 264.814 253.825C255.033 267.252 244.031 278.218 233.031 285.983C222.021 293.756 211.071 298.28 201.386 298.921L201.518 300.917C211.694 300.243 222.993 295.517 234.185 287.617C245.387 279.709 256.54 268.58 266.43 255.003C286.21 227.851 301 190.826 301 150H299ZM200.452 299.919V300H202.452V299.919H200.452ZM201.452 299H199.028V301H201.452V299ZM199.028 299H141.851V301H199.028V299Z" fill="black" mask="url(#path-1-inside-1_5_67)"/>
<mask id="path-3-inside-2_5_67" fill="white">
<path fill-rule="evenodd" clip-rule="evenodd" d="M107.905 0L0 0C15.6837 43.4138 24.7604 94.8534 24.7604 150C24.7604 205.147 15.6837 256.586 1.01089e-05 300H107.905C92.2215 256.586 83.1447 205.147 83.1447 150C83.1447 94.8534 92.2215 43.4138 107.905 0Z"/>
</mask>
<path fill-rule="evenodd" clip-rule="evenodd" d="M107.905 0L0 0C15.6837 43.4138 24.7604 94.8534 24.7604 150C24.7604 205.147 15.6837 256.586 1.01089e-05 300H107.905C92.2215 256.586 83.1447 205.147 83.1447 150C83.1447 94.8534 92.2215 43.4138 107.905 0Z" fill="#C2DFE3"/>
<path fill-rule="evenodd" clip-rule="evenodd" d="M107.905 0L0 0C15.6837 43.4138 24.7604 94.8534 24.7604 150C24.7604 205.147 15.6837 256.586 1.01089e-05 300H107.905C92.2215 256.586 83.1447 205.147 83.1447 150C83.1447 94.8534 92.2215 43.4138 107.905 0Z" fill="url(#paint1_linear_5_67)" fill-opacity="0.2"/>
<path d="M0 0L0 -1L-1.42451 -1L-0.940509 0.339768L0 0ZM107.905 0L108.846 0.339768L109.33 -1L107.905 -1V0ZM1.01089e-05 300L-0.940499 299.66L-1.4245 301H1.01089e-05V300ZM107.905 300V301H109.33L108.846 299.66L107.905 300ZM0 1L107.905 1V-1L0 -1L0 1ZM25.7604 150C25.7604 94.7471 16.6666 43.1916 0.940509 -0.339768L-0.940509 0.339768C14.7007 43.636 23.7604 94.9597 23.7604 150H25.7604ZM0.940519 300.34C16.6666 256.808 25.7604 205.253 25.7604 150H23.7604C23.7604 205.04 14.7007 256.364 -0.940499 299.66L0.940519 300.34ZM107.905 299H1.01089e-05V301H107.905V299ZM108.846 299.66C93.2044 256.364 84.1447 205.04 84.1447 150H82.1447C82.1447 205.253 91.2385 256.808 106.965 300.34L108.846 299.66ZM84.1447 150C84.1447 94.9597 93.2044 43.636 108.846 0.339768L106.965 -0.339768C91.2385 43.1916 82.1447 94.7471 82.1447 150H84.1447Z" fill="black" mask="url(#path-3-inside-2_5_67)"/>
<defs>
<linearGradient id="paint0_linear_5_67" x1="219.26" y1="0" x2="219.26" y2="300" gradientUnits="userSpaceOnUse">
<stop stop-color="#097CA3" stop-opacity="0.25"/>
<stop offset="1" stop-color="#ABFF4F" stop-opacity="0.25"/>
</linearGradient>
<linearGradient id="paint1_linear_5_67" x1="53.9526" y1="0" x2="53.9526" y2="300" gradientUnits="userSpaceOnUse">
<stop stop-color="#097CA3" stop-opacity="0.25"/>
<stop offset="1" stop-color="#ABFF4F" stop-opacity="0.25"/>
</linearGradient>
</defs>
</svg>
