<svg width="300" height="300" viewBox="0 0 300 300" fill="none" xmlns="http://www.w3.org/2000/svg">
<mask id="path-1-inside-1_5_66" fill="white">
<path fill-rule="evenodd" clip-rule="evenodd" d="M202.928 300C232.989 265.916 252.457 211.416 252.457 150C252.457 88.584 232.989 34.0844 202.928 0C257.987 11.8229 300 74.48 300 150C300 225.52 257.987 288.177 202.928 300Z"/>
</mask>
<path fill-rule="evenodd" clip-rule="evenodd" d="M202.928 300C232.989 265.916 252.457 211.416 252.457 150C252.457 88.584 232.989 34.0844 202.928 0C257.987 11.8229 300 74.48 300 150C300 225.52 257.987 288.177 202.928 300Z" fill="#C2DFE3"/>
<path fill-rule="evenodd" clip-rule="evenodd" d="M202.928 300C232.989 265.916 252.457 211.416 252.457 150C252.457 88.584 232.989 34.0844 202.928 0C257.987 11.8229 300 74.48 300 150C300 225.52 257.987 288.177 202.928 300Z" fill="url(#paint0_linear_5_66)"/>
<path d="M202.928 300L202.178 299.339L200.17 301.615L203.138 300.978L202.928 300ZM202.928 0L203.138 -0.977713L200.17 -1.61496L202.178 0.661455L202.928 0ZM251.457 150C251.457 211.226 232.046 265.473 202.178 299.339L203.678 300.661C233.932 266.358 253.457 211.606 253.457 150H251.457ZM202.178 0.661455C232.046 34.5265 251.457 88.7739 251.457 150H253.457C253.457 88.3942 233.932 33.6422 203.678 -0.661455L202.178 0.661455ZM202.718 0.977713C257.159 12.6678 299 74.7688 299 150H301C301 74.1912 258.816 10.978 203.138 -0.977713L202.718 0.977713ZM299 150C299 225.231 257.159 287.332 202.718 299.022L203.138 300.978C258.816 289.022 301 225.809 301 150H299Z" fill="black" mask="url(#path-1-inside-1_5_66)"/>
<mask id="path-3-inside-2_5_66" fill="white">
<path fill-rule="evenodd" clip-rule="evenodd" d="M57.9795 0C91.9497 23.735 115.959 81.9492 115.959 150C115.959 218.051 91.9497 276.265 57.9795 300C24.0093 276.265 0 218.051 0 150C0 81.9492 24.0093 23.735 57.9795 0Z"/>
</mask>
<path fill-rule="evenodd" clip-rule="evenodd" d="M57.9795 0C91.9497 23.735 115.959 81.9492 115.959 150C115.959 218.051 91.9497 276.265 57.9795 300C24.0093 276.265 0 218.051 0 150C0 81.9492 24.0093 23.735 57.9795 0Z" fill="#C2DFE3"/>
<path fill-rule="evenodd" clip-rule="evenodd" d="M57.9795 0C91.9497 23.735 115.959 81.9492 115.959 150C115.959 218.051 91.9497 276.265 57.9795 300C24.0093 276.265 0 218.051 0 150C0 81.9492 24.0093 23.735 57.9795 0Z" fill="url(#paint1_linear_5_66)"/>
<path d="M57.9795 0L58.5522 -0.819732L57.9795 -1.21991L57.4067 -0.819732L57.9795 0ZM57.9795 300L57.4067 300.82L57.9795 301.22L58.5522 300.82L57.9795 300ZM57.4067 0.819732C74.1795 12.5389 88.5742 32.836 98.7775 58.748C108.976 84.6472 114.959 116.088 114.959 150H116.959C116.959 115.861 110.937 84.1696 100.638 58.0152C90.3447 31.8736 75.7496 11.1961 58.5522 -0.819732L57.4067 0.819732ZM114.959 150C114.959 183.912 108.976 215.353 98.7775 241.252C88.5742 267.164 74.1795 287.461 57.4067 299.18L58.5522 300.82C75.7496 288.804 90.3447 268.126 100.638 241.985C110.937 215.83 116.959 184.139 116.959 150H114.959ZM58.5522 299.18C41.7794 287.461 27.3848 267.164 17.1814 241.252C6.98302 215.353 1 183.912 1 150H-1C-1 184.139 5.02161 215.83 15.3204 241.985C25.6142 268.126 40.2093 288.804 57.4067 300.82L58.5522 299.18ZM1 150C1 116.088 6.98302 84.6472 17.1814 58.748C27.3848 32.836 41.7794 12.5389 58.5522 0.819732L57.4067 -0.819732C40.2093 11.1961 25.6142 31.8736 15.3204 58.0152C5.02161 84.1696 -1 115.861 -1 150H1Z" fill="black" mask="url(#path-3-inside-2_5_66)"/>
<defs>
<linearGradient id="paint0_linear_5_66" x1="251.464" y1="0" x2="251.464" y2="300" gradientUnits="userSpaceOnUse">
<stop stop-color="#097CA3" stop-opacity="0.25"/>
<stop offset="1" stop-color="#ABFF4F" stop-opacity="0.25"/>
</linearGradient>
<linearGradient id="paint1_linear_5_66" x1="57.9795" y1="0" x2="57.9795" y2="300" gradientUnits="userSpaceOnUse">
<stop stop-color="#097CA3" stop-opacity="0.25"/>
<stop offset="1" stop-color="#ABFF4F" stop-opacity="0.25"/>
</linearGradient>
</defs>
</svg>
